<?xml version="1.0" encoding="UTF-8"?>
<svg id="Layer_1" data-name="Layer 1" xmlns="http://www.w3.org/2000/svg" xmlns:xlink="http://www.w3.org/1999/xlink" viewBox="0 0 862.82 900.79">
  <defs>
    <style>
      .cls-1 {
        fill: url(#linear-gradient-2);
      }

      .cls-2 {
        fill: url(#linear-gradient);
      }
    </style>
    <linearGradient id="linear-gradient" x1="431.41" y1="900.79" x2="431.41" y2="294.53" gradientUnits="userSpaceOnUse">
      <stop offset=".02" stop-color="#0074cc"/>
      <stop offset=".04" stop-color="#006fc4"/>
      <stop offset=".15" stop-color="#035097"/>
      <stop offset=".24" stop-color="#063977"/>
      <stop offset=".32" stop-color="#072b63"/>
      <stop offset=".38" stop-color="#08275c"/>
      <stop offset=".58" stop-color="#112575"/>
      <stop offset="1" stop-color="#2a22b3"/>
    </linearGradient>
    <linearGradient id="linear-gradient-2" x1="127.49" y1="168.1" x2="454.08" y2="733.77" gradientUnits="userSpaceOnUse">
      <stop offset="0" stop-color="#f00000"/>
      <stop offset=".03" stop-color="#e80000"/>
      <stop offset=".16" stop-color="#cb0100"/>
      <stop offset=".28" stop-color="#b60300"/>
      <stop offset=".41" stop-color="#aa0300"/>
      <stop offset=".53" stop-color="#a60400"/>
      <stop offset=".75" stop-color="#b50200"/>
      <stop offset="1" stop-color="#c00"/>
    </linearGradient>
  </defs>
  <path class="cls-2" d="M351.66,452.15c2.26,1.15,4.52,2.3,6.77,3.45,66.9,31.33,134.04,64.56,201.34,99.83,4.46,2.33,8.9,4.67,13.34,7.02,1.67.88,2.93,2.37,3.53,4.16,1.93,5.77,3.86,11.56,5.78,17.35,30.98,93.51,59.09,186.39,84.54,278.53.13.45.3.89.51,1.31,1.43,2.89,3.3,7.7,3.31,13.77,0,3.85.03,15.33-8.67,20.69-5.96,3.67-14,3.25-20.85-.66-.36-.21-.7-.45-1.02-.71l-212.32-174.73c-1.76-1.45-2.74-3.64-2.67-5.92.97-30.06-.92-56.18.29-86.56.04-.81.76-9.68,3.25-11.9,2.12-1.89,1.48-2.93,5.19-2.83,1.52.04,57,38.22,80.84,56.99.32.25,9.68,8.55,11.39,6.98,1.69-1.56-.32-8.6-.42-8.97-3.5-13.72-7-27.44-10.5-41.16-.33-1.28-1.91-5.3-2.85-6.23-3.06-3.02-123.44-71.49-175.55-100.2M280.21,415.71c-29.99-15.3-58.73-29.96-88.73-45.25-3.7-1.6-5.12-5.85-3.57-8.81,1.17-2.24,3.94-3.54,6.78-3.05.37.06.75.12,1.12.13,27.49.69,54.99,1.39,82.48,2.08l97.73,3.36,248.32,7.13c1.52.22,2.77,1.22,3.15,2.52.48,1.68-.54,3.71-2.52,4.49-.23.09-.45.19-.66.32-24.5,15.59-49.01,31.17-73.51,46.76-3.06,1.94-4.23,5.83-2.77,9.14,6.35,14.4,12.71,28.8,19.06,43.2.93,2.11,2.8,3.68,5.05,4.14.33.07.67.12,1.02.17,2.89.39,5.3-.12,6.84-.6.44-.14.86-.32,1.27-.55l272.6-148.84c.22-.12.43-.24.63-.38,5.99-4.02,9.16-11.02,8.08-17.83-1.28-8.02-8.25-14.38-16.88-15.08-.21-.02-.42-.02-.64-.02-274.77-1.4-549.55-2.8-824.32-4.19-2.74-.04-6.92.34-10.91,2.8-9.38,5.8-10.66,18.83-9.51,26.43,1.79,11.72,11.07,21.63,23.77,26.09.37.13.73.29,1.07.47,79.2,43.63,157.09,86.54,236.3,130.18"/>
  <path class="cls-1" d="M319.33,297.65c29.74-97,58.78-191.33,88.52-288.33.41-.74,4.87-8.49,13.6-9.26,7.19-.63,12.16,3.92,13.19,4.86,5.9,5.4,6.46,13.1,6.91,19.29.35,4.79-.11,8.05-3.12,24.83-1,5.59-1.94,10.76-2.81,15.47-16.75,79.02-33,155.69-49.75,234.71M299.39,362.33c-52.93,172.66-104.81,342.72-157.73,515.38-.54,2.98-1.64,11.29,3.12,16.63,6.65,7.47,23.3,7.53,37.56-4.54,74.07-57.35,148.14-114.7,222.21-172.05,1.2-28.85,2.41-57.71,3.61-86.56-.21-5.61-3.61-10.57-8.68-12.64-7.15-2.93-13.46,1.6-13.77,1.84-22.55,16.34-45.1,32.68-67.65,49.03-2.12,1.94-8.09,7.18-10.15,5.74-.76-.53-.89-1.91.38-9.22.8-4.59,1.6-8.36,2.2-10.97,20.5-96.71,40.63-192.05,61.13-288.76"/>
</svg>